<?xml version="1.0" encoding="UTF-8" standalone="no"?>
<!-- Created with Inkscape (http://www.inkscape.org/) -->

<svg
   width="63.375229mm"
   height="63.939342mm"
   viewBox="0 0 63.375229 63.939342"
   version="1.1"
   id="svg5"
   xmlns:xlink="http://www.w3.org/1999/xlink"
   xmlns="http://www.w3.org/2000/svg"
   xmlns:svg="http://www.w3.org/2000/svg">
  <defs
     id="defs2">
    <linearGradient
       id="linearGradient8861">
      <stop
         style="stop-color:#11db13;stop-opacity:0.79678679;"
         offset="0.29814565"
         id="stop8857" />
      <stop
         style="stop-color:#b3ea0d;stop-opacity:0.80034661;"
         offset="1"
         id="stop8859" />
    </linearGradient>
    <linearGradient
       id="linearGradient4805">
      <stop
         style="stop-color:#6a00df;stop-opacity:0.69803923;"
         offset="0"
         id="stop4801" />
      <stop
         style="stop-color:#462dfd;stop-opacity:0.7019608;"
         offset="0.49519408"
         id="stop4809" />
      <stop
         style="stop-color:#00e6ff;stop-opacity:0.69803923;"
         offset="1"
         id="stop4803" />
    </linearGradient>
    <linearGradient
       xlink:href="#linearGradient4805"
       id="linearGradient4807"
       x1="30.935503"
       y1="82.858559"
       x2="82.874352"
       y2="82.858559"
       gradientUnits="userSpaceOnUse"
       gradientTransform="matrix(1.0553377,0,0,1.0553377,-3.0073048,-4.088698)" />
    <radialGradient
       xlink:href="#linearGradient8861"
       id="radialGradient8863"
       cx="60.393478"
       cy="137.68745"
       fx="60.393478"
       fy="137.68745"
       r="21.041876"
       gradientTransform="matrix(1,0,0,0.65259075,-2.4501386,-7.5626321)"
       gradientUnits="userSpaceOnUse" />
  </defs>
  <g
     id="layer1"
     transform="translate(-25.358994,-51.385386)">
    <ellipse
       style="fill:#191919;fill-opacity:1;stroke-width:0.545434"
       id="path273-3"
       cx="57.046608"
       cy="83.355057"
       rx="31.687614"
       ry="31.969673" />
    <circle
       style="fill:url(#linearGradient4807);fill-opacity:1;stroke-width:0.469658"
       id="path273"
       cx="57.046608"
       cy="83.355057"
       r="27.406509" />
    <g
       id="g12450"
       transform="translate(-0.3376528,0.42692329)">
      <circle
         style="fill:#191919;fill-opacity:1;stroke-width:0.208749"
         id="path273-5-0"
         cx="-75.294411"
         cy="-72.898331"
         r="12.181394"
         transform="rotate(-174.27698)" />
      <circle
         style="fill:#191919;fill-opacity:1;stroke-width:0.208749"
         id="path273-5-0-9"
         cx="-55.441166"
         cy="-80.686577"
         r="12.181394"
         transform="rotate(-174.27698)" />
      <g
         id="g8913"
         transform="translate(-0.58523552,0.60447899)">
        <circle
           style="fill:#000000;stroke-width:0.125717"
           id="path273-5-3-6"
           cx="-55.906872"
           cy="-81.769745"
           r="7.3361378"
           transform="rotate(-174.27698)" />
        <circle
           style="fill:#000000;stroke-width:0.125717"
           id="path273-5-3-6-8"
           cx="-75.194305"
           cy="-71.210251"
           r="7.3361378"
           transform="rotate(-174.27698)" />
        <path
           id="path506-6-2"
           style="fill:url(#radialGradient8863);fill-opacity:1;stroke-width:0.339932"
           d="m 68.216349,68.559209 a 10.787835,10.787835 0 0 0 -10.752832,9.71259 10.787835,10.787835 0 0 0 -0.04289,0.59686 l -2.177128,-1.33429 a 10.787835,10.787835 0 0 0 -4.127913,-2.52852 c -0.0458,-0.0246 -0.09253,-0.0379 -0.140043,-0.0413 a 10.787835,10.787835 0 0 0 -2.210201,-0.46354 10.787835,10.787835 0 0 0 -11.810132,9.65832 10.787835,10.787835 0 0 0 2.89698,8.4739 c 0.0093,0.0133 0.01826,0.0267 0.02842,0.0393 0.02701,0.0335 0.05788,0.064 0.09095,0.0925 a 10.787835,10.787835 0 0 0 6.642489,3.20394 10.787835,10.787835 0 0 0 11.809615,-9.65833 10.787835,10.787835 0 0 0 0.02377,-0.37362 l 3.078365,1.88723 a 10.787835,10.787835 0 0 0 2.146122,1.31516 l 0.02325,0.0145 c 0.0346,0.0212 0.07002,0.0353 0.105936,0.0439 a 10.787835,10.787835 0 0 0 3.321245,0.88316 10.787835,10.787835 0 0 0 11.8091,-9.65781 10.787835,10.787835 0 0 0 -9.65781,-11.80962 10.787835,10.787835 0 0 0 -1.0573,-0.0543 z m -0.31161,2.46858 a 7.3361378,7.3361378 0 0 1 0.54777,0.0341 7.3361378,7.3361378 0 0 1 2.10323,0.53485 c -0.74671,0.32159 -1.52086,0.70651 -2.22622,1.06247 -0.5349,-0.51752 -1.10956,-1.06226 -1.67638,-1.54358 a 7.3361378,7.3361378 0 0 1 1.2516,-0.0879 z m -2.801379,0.70229 c 0.0194,-4.5e-4 0.03943,-5.1e-4 0.05943,5.1e-4 0.0201,0.001 0.04038,0.003 0.06098,0.005 0.0206,0.002 0.04175,0.006 0.06305,0.01 0.0213,0.004 0.0426,0.009 0.06459,0.014 0.0219,0.005 0.04436,0.0119 0.06666,0.0186 0.0225,0.007 0.04531,0.0141 0.06821,0.0222 0.0461,0.0163 0.09295,0.0354 0.141076,0.0568 0.0481,0.0214 0.09686,0.0448 0.14676,0.0708 0.0499,0.026 0.10094,0.0545 0.15245,0.0847 0.0515,0.0303 0.10365,0.0628 0.15658,0.0971 0.0529,0.0342 0.10708,0.0702 0.16123,0.108 0.0541,0.0378 0.10866,0.0774 0.16381,0.11834 0.0551,0.0409 0.11045,0.0838 0.1664,0.12764 0.0559,0.0438 0.11243,0.0887 0.16898,0.13488 0.0566,0.0462 0.11359,0.0933 0.17053,0.14159 0.057,0.0483 0.11392,0.0979 0.17105,0.1478 0.0571,0.0499 0.11394,0.10067 0.17105,0.15192 0.0376,0.0337 0.0747,0.0687 0.11214,0.10284 -0.4817,0.23836 -0.8915,0.42963 -1.17977,0.5271 -0.40667,0.1375 -1.121066,0.27341 -1.949755,0.42788 0.0013,-0.0578 0.0024,-0.11557 0.0047,-0.1726 0.002,-0.0746 0.0058,-0.14871 0.0088,-0.22169 0.003,-0.073 0.0074,-0.14473 0.01395,-0.21549 0.005,-0.0708 0.01077,-0.14091 0.01757,-0.20929 0.007,-0.0683 0.01422,-0.13494 0.02222,-0.2005 0.008,-0.0655 0.01809,-0.12993 0.02739,-0.19224 0.0106,-0.0622 0.02169,-0.12228 0.03359,-0.18087 0.0119,-0.0585 0.02507,-0.11506 0.03927,-0.1695 0.015,-0.0543 0.02969,-0.10715 0.04599,-0.15709 0.0161,-0.0501 0.03391,-0.0975 0.05271,-0.14263 0.009,-0.0226 0.01874,-0.0444 0.02894,-0.0656 0.01,-0.0213 0.02082,-0.0415 0.03152,-0.0615 0.0105,-0.0201 0.02116,-0.0395 0.03256,-0.0579 0.0112,-0.0184 0.02304,-0.0362 0.03514,-0.0532 0.012,-0.0173 0.02441,-0.033 0.03721,-0.0486 0.0126,-0.0156 0.02576,-0.0305 0.03876,-0.045 0.0137,-0.0137 0.02726,-0.0269 0.04186,-0.0388 0.0141,-0.0124 0.02851,-0.0244 0.04341,-0.0351 0.0149,-0.0108 0.03019,-0.0205 0.04599,-0.0295 0.0157,-0.009 0.03176,-0.0169 0.04806,-0.0243 0.0166,-0.007 0.03293,-0.014 0.05013,-0.0196 0.0174,-0.005 0.03481,-0.01 0.05271,-0.0139 0.0177,-0.004 0.03659,-0.007 0.05529,-0.009 0.0187,-0.002 0.03734,-0.003 0.05684,-0.004 z m 6.136059,0.95911 c 0.0235,2.2e-4 0.0467,8.9e-4 0.0692,0.002 0.0226,0.001 0.0446,0.003 0.0661,0.006 0.0216,0.003 0.0421,0.006 0.0625,0.0103 0.0205,0.004 0.041,0.008 0.0605,0.0129 0.0193,0.005 0.0381,0.0106 0.0563,0.017 0.0183,0.006 0.0361,0.0131 0.0532,0.0207 0.0171,0.008 0.0341,0.0163 0.0501,0.0253 0.016,0.009 0.0313,0.0184 0.046,0.0289 0.0148,0.0104 0.029,0.0218 0.0424,0.0336 0.0135,0.0119 0.026,0.0244 0.0382,0.0377 0.0124,0.0133 0.0237,0.0271 0.0346,0.0418 0.0106,0.0147 0.0212,0.03 0.031,0.046 0.01,0.016 0.0193,0.0327 0.0279,0.0501 0.008,0.0174 0.0168,0.0357 0.0243,0.0543 0.007,0.0186 0.0147,0.0375 0.0207,0.0574 0.007,0.0198 0.0119,0.0405 0.0176,0.0615 0.005,0.0211 0.0101,0.0424 0.014,0.0646 0.004,0.0222 0.008,0.0454 0.0114,0.0687 0.003,0.0233 0.006,0.0464 0.008,0.0708 0.004,0.0487 0.007,0.0999 0.008,0.15244 9.3e-4,0.0525 -7e-5,0.10662 -0.004,0.16279 -0.003,0.0562 -0.007,0.11465 -0.0129,0.17415 -0.006,0.0595 -0.0134,0.1205 -0.0222,0.18293 -0.009,0.0624 -0.0189,0.1262 -0.0305,0.1912 -0.0119,0.065 -0.0247,0.13118 -0.0388,0.19844 -0.0141,0.0673 -0.0296,0.13548 -0.046,0.20464 -0.0164,0.0691 -0.0339,0.13909 -0.0522,0.2098 -0.0184,0.0707 -0.0374,0.14202 -0.0574,0.21395 -0.0176,0.0631 -0.0357,0.12683 -0.0543,0.19068 -0.58406,-0.31244 -1.07864,-0.58629 -1.36684,-0.79633 -0.30074,-0.21919 -0.73507,-0.62945 -1.23816,-1.11673 0.0164,-0.008 0.0327,-0.0158 0.0491,-0.0233 0.0698,-0.0318 0.13932,-0.0635 0.20877,-0.0941 0.0694,-0.0306 0.13896,-0.0604 0.20774,-0.0894 0.0688,-0.029 0.13686,-0.057 0.20464,-0.0842 0.0678,-0.0272 0.13557,-0.0534 0.20205,-0.0785 0.0665,-0.025 0.13201,-0.0487 0.19689,-0.0713 0.0649,-0.0226 0.12874,-0.0442 0.19172,-0.0641 0.0629,-0.0199 0.12528,-0.0384 0.18604,-0.0553 0.0607,-0.0168 0.12004,-0.032 0.17828,-0.0455 0.0582,-0.0136 0.11513,-0.0252 0.17053,-0.0351 0.0554,-0.01 0.10948,-0.0183 0.16175,-0.0243 0.0522,-0.006 0.10259,-0.0102 0.15141,-0.0119 0.0244,-9.5e-4 0.0483,-6.8e-4 0.0718,-5.2e-4 z m -8.32869,0.14935 c -0.01418,0.49362 -0.0098,1.00661 0.0016,1.51308 -0.514747,0.1026 -1.035944,0.21375 -1.53169,0.34003 a 7.3361378,7.3361378 0 0 1 1.530139,-1.85311 z m 5.1878,0.99167 c 0.15893,0.15367 0.31877,0.30903 0.46509,0.45113 0.0992,0.0964 0.19488,0.18859 0.28628,0.27595 0.0914,0.0874 0.17852,0.16961 0.26045,0.24495 0.082,0.0754 0.15863,0.14378 0.22945,0.20412 0.0354,0.0302 0.069,0.0583 0.10128,0.0842 0.0323,0.0258 0.063,0.0497 0.092,0.0708 0.029,0.0211 0.0611,0.0427 0.0956,0.0656 0.0345,0.0229 0.0716,0.0468 0.1111,0.0713 0.0791,0.0489 0.16777,0.10116 0.26458,0.15607 0.0968,0.0549 0.20202,0.11235 0.31316,0.1726 0.11115,0.0603 0.22875,0.12314 0.35089,0.1881 0.22209,0.11811 0.46207,0.24501 0.70486,0.37569 -0.024,0.0709 -0.0477,0.1423 -0.0718,0.21239 -0.0993,0.2881 -0.19904,0.56843 -0.29094,0.8294 -0.0459,0.13047 -0.0902,0.25558 -0.13125,0.37517 -0.041,0.11957 -0.0791,0.23357 -0.11317,0.33952 -0.0341,0.10594 -0.0643,0.20447 -0.0894,0.29404 -0.0126,0.0448 -0.0236,0.087 -0.0336,0.12712 -0.01,0.0402 -0.0188,0.0779 -0.0258,0.11317 -0.007,0.0352 -0.0134,0.0733 -0.0196,0.11421 -0.006,0.0409 -0.0121,0.0851 -0.0181,0.13126 -0.0112,0.0923 -0.0212,0.19449 -0.0305,0.3054 -0.009,0.11092 -0.0176,0.23043 -0.0263,0.35657 -0.008,0.12619 -0.0155,0.25929 -0.0238,0.39739 -0.0108,0.19127 -0.0231,0.4006 -0.0351,0.6072 -0.0967,0.0274 -0.2011,0.0575 -0.29352,0.0837 -0.13308,0.0377 -0.26105,0.0735 -0.38241,0.10903 -0.12135,0.0355 -0.23589,0.07 -0.3421,0.10336 -0.10619,0.0333 -0.20431,0.066 -0.29197,0.0971 -0.0439,0.0156 -0.085,0.0304 -0.12351,0.0455 -0.0385,0.0151 -0.0741,0.0298 -0.10697,0.0444 -0.0328,0.0146 -0.0679,0.0311 -0.1049,0.0496 -0.0371,0.0184 -0.0763,0.039 -0.1173,0.061 -0.0819,0.044 -0.1712,0.0945 -0.26717,0.1509 -0.096,0.0564 -0.19868,0.11887 -0.30644,0.185 -0.10776,0.0661 -0.22116,0.13599 -0.33848,0.20929 -0.23463,0.14661 -0.48567,0.30534 -0.74518,0.46509 -0.0806,0.0496 -0.16311,0.0987 -0.24494,0.14831 -0.0563,-0.0639 -0.11315,-0.12804 -0.16847,-0.19172 -0.19985,-0.23006 -0.39251,-0.45657 -0.57257,-0.66663 -0.09,-0.10504 -0.1769,-0.20594 -0.25994,-0.30127 -0.0831,-0.0953 -0.16197,-0.18517 -0.236675,-0.26768 -0.07478,-0.0825 -0.145317,-0.15775 -0.210324,-0.22428 -0.03251,-0.0333 -0.06373,-0.0643 -0.09353,-0.093 -0.0298,-0.0287 -0.05836,-0.0549 -0.08527,-0.0785 -0.02691,-0.0237 -0.05662,-0.0485 -0.08888,-0.0744 -0.03226,-0.0259 -0.0672,-0.0531 -0.104387,-0.0811 -0.07437,-0.056 -0.157672,-0.1158 -0.24908,-0.17932 -0.0914,-0.0635 -0.190915,-0.13088 -0.296106,-0.20102 -0.105222,-0.0701 -0.216055,-0.14328 -0.331763,-0.21911 -0.08185,-0.0536 -0.174206,-0.11443 -0.259932,-0.17053 0.05347,-0.21363 0.10729,-0.42881 0.157096,-0.6258 0.0335,-0.13421 0.06633,-0.26328 0.09663,-0.38603 0.03,-0.12282 0.05727,-0.23927 0.08217,-0.34778 0.0242,-0.10862 0.04531,-0.20975 0.06201,-0.30127 0.009,-0.0456 0.01632,-0.0887 0.02222,-0.12971 0.006,-0.041 0.01122,-0.0791 0.01602,-0.11472 0.004,-0.0357 0.0068,-0.0745 0.0098,-0.11576 0.002,-0.0414 0.0042,-0.0858 0.0062,-0.13229 0.002,-0.093 0.0031,-0.19567 0.0031,-0.30696 -7.9e-4,-0.11129 -0.0032,-0.23121 -0.0072,-0.3576 -0.003,-0.12639 -0.0078,-0.25915 -0.0124,-0.39739 -0.01,-0.27652 -0.02086,-0.57337 -0.02946,-0.87798 -0.0016,-0.0616 -0.0026,-0.12447 -0.0041,-0.18655 0.26829,-0.0516 0.53315,-0.10088 0.778247,-0.14676 0.135976,-0.0254 0.26659,-0.0502 0.390674,-0.0744 0.124093,-0.0242 0.241557,-0.0479 0.350367,-0.0713 0.10879,-0.0235 0.20908,-0.0467 0.29921,-0.0698 0.0451,-0.0115 0.0874,-0.0232 0.12712,-0.0346 0.0398,-0.0115 0.0771,-0.0227 0.1111,-0.0341 0.034,-0.0115 0.0705,-0.0248 0.10904,-0.0398 0.0386,-0.015 0.0792,-0.0319 0.12196,-0.0501 0.0857,-0.0364 0.17936,-0.0787 0.28008,-0.12609 0.10065,-0.0474 0.20809,-0.0995 0.32143,-0.15555 0.11334,-0.056 0.23253,-0.116 0.35605,-0.17828 0.19175,-0.0967 0.40057,-0.20197 0.60927,-0.30644 z m 5.66218,0.36793 a 7.3361378,7.3361378 0 0 1 1.19218,2.93626 c -0.55339,-0.36182 -1.17593,-0.71697 -1.78956,-1.05162 0.21388,-0.61984 0.4269,-1.26622 0.59738,-1.88464 z m -10.81794,1.19838 c 0.03487,0.98836 0.07124,1.85573 0.01964,2.33991 -0.02538,0.23782 -0.0936,0.56787 -0.182418,0.94878 -0.05829,-0.0407 -0.117111,-0.0809 -0.174666,-0.12196 -0.06256,-0.0446 -0.124314,-0.089 -0.185519,-0.13384 -0.0612,-0.0449 -0.121861,-0.0903 -0.181384,-0.13539 -0.0595,-0.0451 -0.118265,-0.0897 -0.1757,-0.13488 -0.05738,-0.0451 -0.113576,-0.0903 -0.168465,-0.13539 -0.05494,-0.0451 -0.108657,-0.09 -0.160714,-0.13488 -0.05197,-0.0449 -0.102164,-0.0898 -0.150895,-0.13435 -0.04867,-0.0446 -0.09568,-0.0891 -0.14056,-0.13333 -0.04505,-0.0442 -0.08787,-0.0881 -0.128674,-0.13177 -0.0408,-0.0437 -0.08005,-0.0872 -0.116272,-0.13023 -0.03622,-0.043 -0.06996,-0.0854 -0.101286,-0.12764 -0.03132,-0.0423 -0.0602,-0.0842 -0.0863,-0.12557 -0.0127,-0.0207 -0.02516,-0.0411 -0.03669,-0.0615 -0.01164,-0.0204 -0.02249,-0.0413 -0.03256,-0.0615 -0.01057,-0.0202 -0.01941,-0.04 -0.02791,-0.0599 -0.0085,-0.0199 -0.01602,-0.0398 -0.02326,-0.0594 -0.0074,-0.0195 -0.01273,-0.0391 -0.01809,-0.0584 -0.0053,-0.0193 -0.0097,-0.0384 -0.01395,-0.0574 -0.0031,-0.019 -0.0064,-0.038 -0.0078,-0.0568 -0.0022,-0.0187 -0.0035,-0.0375 -0.0036,-0.0558 -1.14e-4,-0.0183 6.9e-4,-0.0363 0.0021,-0.0543 0.002,-0.018 0.0049,-0.0356 0.0078,-0.0532 0.0041,-0.0177 0.0079,-0.0355 0.01344,-0.0527 0.0062,-0.0173 0.01136,-0.0339 0.0186,-0.0507 0.0072,-0.0169 0.01577,-0.034 0.02481,-0.0506 0.0087,-0.0165 0.01864,-0.0324 0.02945,-0.0486 0.01082,-0.0161 0.02263,-0.0324 0.03514,-0.0481 0.0124,-0.0158 0.02528,-0.031 0.03927,-0.0465 0.01389,-0.0154 0.02886,-0.0309 0.04444,-0.046 0.01557,-0.0151 0.03195,-0.0303 0.04909,-0.045 0.01705,-0.0148 0.03491,-0.0289 0.05323,-0.0434 0.01862,-0.0144 0.03808,-0.0288 0.05788,-0.0429 0.03989,-0.0282 0.08249,-0.0558 0.127641,-0.0827 0.04528,-0.027 0.09261,-0.0533 0.142627,-0.0791 0.05006,-0.0257 0.102606,-0.051 0.157096,-0.0755 0.05452,-0.0246 0.110991,-0.0489 0.169499,-0.0723 0.05857,-0.0235 0.119256,-0.0462 0.181384,-0.0687 0.0621,-0.0224 0.125402,-0.0442 0.190686,-0.0656 0.06522,-0.0214 0.132444,-0.0421 0.200505,-0.0625 0.06802,-0.0204 0.137361,-0.0404 0.207739,-0.06 0.07041,-0.0195 0.141658,-0.0392 0.21394,-0.0579 0.04309,-0.0111 0.08701,-0.0217 0.130742,-0.0326 z m 4.54908,1.10743 a 1.2669988,1.2669988 0 0 0 -1.2268,0.9958 1.2669988,1.2669988 0 0 0 0.96635,1.50895 1.2669988,1.2669988 0 0 0 1.50895,-0.96635 1.2669988,1.2669988 0 0 0 -0.96635,-1.50895 1.2669988,1.2669988 0 0 0 -0.28215,-0.0295 z m 5.33817,0.5302 c 0.0602,0.039 0.11944,0.0787 0.17725,0.11782 0.0588,0.0399 0.11618,0.0794 0.17208,0.11937 0.0559,0.04 0.11022,0.0799 0.16279,0.11989 0.0526,0.04 0.10361,0.08 0.15244,0.11989 0.0488,0.0399 0.0954,0.0796 0.14004,0.11937 0.0446,0.0397 0.0871,0.0798 0.12713,0.11937 0.0401,0.0395 0.0781,0.0786 0.11317,0.11783 0.035,0.0392 0.0675,0.0785 0.0971,0.1173 0.0148,0.0194 0.0286,0.0385 0.0419,0.0579 0.0134,0.0193 0.0259,0.0387 0.0377,0.0579 0.0119,0.0192 0.0233,0.0384 0.0336,0.0574 0.0104,0.0191 0.0196,0.0379 0.0284,0.0568 0.009,0.0189 0.0167,0.0381 0.0238,0.0569 0.007,0.0188 0.0137,0.0372 0.0191,0.0558 0.005,0.0186 0.01,0.0373 0.0134,0.0558 0.004,0.0185 0.007,0.037 0.008,0.0553 0.002,0.0183 0.003,0.0362 0.003,0.0543 1.3e-4,0.0181 -3.5e-4,0.0364 -0.003,0.0543 -0.002,0.0179 -0.005,0.0356 -0.009,0.0532 -0.004,0.0177 -0.009,0.0348 -0.0145,0.0522 -0.006,0.0174 -0.0128,0.0348 -0.0196,0.0522 -0.008,0.0171 -0.0157,0.0346 -0.0248,0.0517 -0.009,0.0171 -0.019,0.0337 -0.03,0.0506 -0.0109,0.0168 -0.0226,0.0335 -0.0351,0.0501 -0.0128,0.0165 -0.0261,0.0337 -0.0403,0.0501 -0.0142,0.0165 -0.0288,0.0323 -0.0444,0.0486 -0.0156,0.0163 -0.0325,0.0326 -0.0496,0.0486 -0.0171,0.0161 -0.0347,0.0322 -0.0532,0.0481 -0.0371,0.0318 -0.0773,0.0631 -0.11989,0.094 -0.0425,0.031 -0.0874,0.0613 -0.13488,0.0915 -0.0475,0.0302 -0.0978,0.06 -0.14986,0.0894 -0.052,0.0294 -0.10616,0.0586 -0.16226,0.0873 -0.0562,0.0287 -0.11381,0.0573 -0.17363,0.0853 -0.0598,0.028 -0.12141,0.0555 -0.18449,0.0827 -0.0631,0.0273 -0.12789,0.054 -0.19379,0.0806 -0.0659,0.0266 -0.13273,0.0528 -0.20102,0.0785 -0.0683,0.0259 -0.13798,0.0514 -0.20825,0.0765 -0.0703,0.0252 -0.1416,0.0504 -0.21343,0.0749 -0.003,9.3e-4 -0.006,0.002 -0.008,0.003 0.0287,-0.37633 0.0613,-0.69987 0.10697,-0.92811 0.0854,-0.42643 0.3301,-1.1255 0.61546,-1.93373 z m -12.433865,1.57768 c 0.64019,0.49321 1.366979,0.98182 2.048454,1.42988 -0.217334,0.85977 -0.450987,1.80161 -0.604614,2.68666 a 7.3361378,7.3361378 0 0 1 -1.44384,-4.11654 z m -12.412162,1.04645 a 7.3361378,7.3361378 0 0 1 0.210323,0.0129 7.3361378,7.3361378 0 0 1 3.419429,1.25212 c -0.801807,0.13164 -1.667255,0.33626 -2.474784,0.53744 -0.365508,-0.60562 -0.75765,-1.23503 -1.154968,-1.80247 z m -4.028178,0.88263 c -0.141519,0.48223 -0.270628,0.98623 -0.390674,1.48311 -0.487168,-0.015 -0.990088,-0.0258 -1.483113,-0.0227 a 7.3361378,7.3361378 0 0 1 1.873787,-1.46037 z m 2.425175,0.0263 c 0.0181,-9.4e-4 0.03596,-9.1e-4 0.05426,0 v 5.2e-4 c 0.0183,9.4e-4 0.03669,0.003 0.05529,0.005 0.0186,0.003 0.03743,0.007 0.05633,0.0109 0.0188,0.005 0.03774,0.0102 0.05684,0.016 0.0191,0.006 0.03858,0.0134 0.05788,0.0212 0.0193,0.008 0.03838,0.0165 0.05788,0.0258 0.0195,0.009 0.03921,0.0196 0.05891,0.0305 0.0198,0.0109 0.04004,0.0222 0.05994,0.0346 0.02,0.0124 0.03974,0.0255 0.05994,0.0393 0.0402,0.0277 0.08056,0.0584 0.12144,0.0915 0.0409,0.0331 0.0826,0.0684 0.124023,0.10645 0.0415,0.0381 0.08319,0.0788 0.125057,0.12144 0.042,0.0426 0.08383,0.0876 0.126091,0.13436 0.0422,0.0468 0.08514,0.0957 0.12764,0.14625 0.0426,0.0505 0.08505,0.10273 0.127641,0.15658 0.0426,0.0539 0.08552,0.1091 0.128158,0.16588 0.02653,0.0352 0.05262,0.0718 0.07906,0.108 -0.56835,0.13986 -1.052807,0.249 -1.375627,0.28319 -0.285996,0.0302 -0.705967,0.0299 -1.204578,0.017 0.0019,-0.005 0.0038,-0.0111 0.0057,-0.0165 0.0233,-0.0671 0.04711,-0.13306 0.07131,-0.1974 0.0241,-0.0643 0.0489,-0.1275 0.0739,-0.18862 0.025,-0.0611 0.05016,-0.12028 0.07596,-0.17777 0.026,-0.0575 0.05217,-0.11297 0.07906,-0.16639 0.0269,-0.0534 0.05437,-0.10508 0.08217,-0.154 0.0278,-0.0489 0.05595,-0.0955 0.08475,-0.13953 0.0288,-0.044 0.05847,-0.0854 0.08837,-0.12402 0.0149,-0.0193 0.02976,-0.0378 0.04496,-0.0558 0.0152,-0.0179 0.03059,-0.0347 0.04599,-0.0512 0.0154,-0.0164 0.03081,-0.0326 0.04651,-0.0475 0.0158,-0.0149 0.03154,-0.029 0.04754,-0.0424 0.016,-0.0134 0.03228,-0.026 0.04858,-0.0377 0.0163,-0.0117 0.03301,-0.0225 0.04961,-0.0326 0.0166,-0.0101 0.03323,-0.0191 0.05013,-0.0274 0.0168,-0.008 0.03406,-0.0162 0.05116,-0.0227 0.0171,-0.006 0.03428,-0.0118 0.05168,-0.0165 0.0174,-0.005 0.03491,-0.008 0.05271,-0.0114 0.0178,-0.003 0.03564,-0.005 0.05374,-0.005 z m 17.149858,0.18862 c 0.462829,0.30771 0.848706,0.57578 1.083138,0.78187 0.277791,0.24421 0.668919,0.68756 1.121894,1.21439 -0.0267,0.0139 -0.0536,0.0283 -0.0801,0.0419 -0.065,0.0332 -0.129348,0.0651 -0.193267,0.0961 -0.0639,0.031 -0.12761,0.061 -0.19017,0.0894 -0.0625,0.0284 -0.124111,0.0556 -0.185001,0.0811 -0.0609,0.0255 -0.120864,0.0494 -0.179834,0.0718 -0.0589,0.0223 -0.116873,0.0432 -0.173633,0.062 -0.0567,0.0188 -0.112118,0.0358 -0.166398,0.0507 -0.0542,0.0149 -0.107614,0.0275 -0.159164,0.0382 -0.0515,0.0107 -0.101461,0.019 -0.149861,0.0253 -0.0242,0.003 -0.04791,0.006 -0.07131,0.007 -0.0234,0.002 -0.04675,0.003 -0.06925,0.004 -0.0226,6.8e-4 -0.04465,0.001 -0.06615,5.1e-4 -0.0217,-5.5e-4 -0.04266,-0.002 -0.06356,-0.004 -0.0207,-0.002 -0.04118,-0.004 -0.06098,-0.008 -0.0198,-0.003 -0.03908,-0.007 -0.05788,-0.0114 -0.0188,-0.005 -0.03708,-0.01 -0.05478,-0.016 -0.0178,-0.006 -0.03539,-0.0131 -0.05219,-0.0207 -0.0167,-0.007 -0.03298,-0.0153 -0.04858,-0.0243 -0.0156,-0.009 -0.03097,-0.019 -0.04547,-0.0294 -0.0145,-0.0105 -0.02794,-0.022 -0.04134,-0.0341 -0.0134,-0.0121 -0.02646,-0.0251 -0.03876,-0.0388 l -0.0015,0.001 c -0.0123,-0.0136 -0.02384,-0.0283 -0.03514,-0.0434 -0.0111,-0.0151 -0.02142,-0.031 -0.03152,-0.0475 -0.0101,-0.0165 -0.02045,-0.0333 -0.02945,-0.0512 -0.009,-0.0179 -0.01764,-0.0366 -0.02584,-0.0558 -0.008,-0.0192 -0.01564,-0.0389 -0.02274,-0.0594 -0.007,-0.0204 -0.01385,-0.0413 -0.02015,-0.063 -0.006,-0.0217 -0.01227,-0.0444 -0.01757,-0.0672 -0.006,-0.0229 -0.01039,-0.0462 -0.01499,-0.0703 -0.009,-0.048 -0.01559,-0.0981 -0.02119,-0.15038 -0.006,-0.0523 -0.0098,-0.10707 -0.01189,-0.1633 -0.002,-0.0562 -0.0031,-0.11383 -0.0031,-0.17363 9.2e-4,-0.0598 0.0017,-0.12153 0.0057,-0.18449 0.003,-0.063 0.0081,-0.12747 0.01344,-0.19327 0.005,-0.0659 0.01277,-0.13328 0.02067,-0.20154 0.008,-0.0683 0.01677,-0.1374 0.02687,-0.20773 0.0103,-0.0703 0.02076,-0.14139 0.03256,-0.21343 0.0117,-0.072 0.02472,-0.14511 0.03772,-0.21859 0.01257,-0.0711 0.0261,-0.14259 0.04082,-0.21446 z m 11.093382,0.0703 a 7.3361378,7.3361378 0 0 1 -2.89647,3.67833 c 0.14326,-0.88203 0.21613,-1.89351 0.2713,-2.83135 0.87188,-0.249 1.80966,-0.5292 2.62517,-0.84698 z m -4.31343,1.33377 c -0.004,0.0322 -0.008,0.0648 -0.0129,0.0966 -0.0103,0.0723 -0.0211,0.14332 -0.0326,0.21342 -0.0112,0.0701 -0.0239,0.13922 -0.0367,0.20671 -0.013,0.0675 -0.0267,0.13345 -0.0408,0.19792 -0.0143,0.0645 -0.0292,0.12758 -0.045,0.18862 -0.0158,0.061 -0.0322,0.12004 -0.0496,0.17725 -0.0174,0.0572 -0.0356,0.11241 -0.0548,0.16536 -0.0191,0.0529 -0.039,0.10366 -0.0599,0.15193 -0.0209,0.0483 -0.0432,0.0937 -0.0662,0.13694 -0.0114,0.0216 -0.0231,0.0429 -0.0351,0.0631 -0.0119,0.0202 -0.0242,0.0396 -0.0367,0.0584 -0.0125,0.0188 -0.0247,0.0369 -0.0377,0.0543 -0.013,0.0174 -0.0263,0.0342 -0.0398,0.0501 -0.0135,0.0159 -0.0273,0.0307 -0.0414,0.045 -0.0141,0.0143 -0.0287,0.0281 -0.0434,0.0408 -0.0146,0.0127 -0.0293,0.0247 -0.0444,0.0357 -0.0153,0.0111 -0.0308,0.0211 -0.0465,0.0305 -0.0157,0.009 -0.0317,0.0177 -0.0481,0.0253 -0.0165,0.008 -0.0331,0.0144 -0.0501,0.0202 -0.0169,0.006 -0.0346,0.0107 -0.0522,0.0145 -0.0176,0.004 -0.0355,0.007 -0.0537,0.009 -0.0182,0.002 -0.0371,0.004 -0.0558,0.004 -0.0188,4.9e-4 -0.0374,-2.6e-4 -0.0568,-0.001 -0.0194,-0.001 -0.0391,-0.003 -0.0589,-0.006 -0.0199,-0.003 -0.0402,-0.006 -0.0605,-0.0109 -0.0204,-0.004 -0.0406,-0.01 -0.0615,-0.0155 -0.0208,-0.006 -0.0418,-0.0128 -0.063,-0.0202 -0.0213,-0.007 -0.0433,-0.0155 -0.0651,-0.0243 -0.0217,-0.009 -0.0436,-0.0182 -0.0656,-0.0284 -0.0443,-0.0204 -0.0895,-0.0436 -0.1354,-0.0692 -0.0459,-0.0257 -0.0928,-0.0537 -0.14004,-0.0842 -0.0472,-0.0305 -0.0951,-0.0633 -0.14366,-0.0982 -0.0485,-0.0349 -0.0977,-0.0721 -0.14728,-0.1111 -0.0496,-0.0389 -0.0999,-0.0799 -0.15038,-0.12248 -0.0506,-0.0426 -0.10125,-0.0869 -0.15244,-0.1328 -0.0312,-0.0279 -0.0627,-0.0573 -0.094,-0.0863 0.62442,-0.38959 1.16023,-0.71611 1.5136,-0.87282 0.20928,-0.0928 0.51138,-0.19382 0.86455,-0.30179 z m -18.615406,0.21911 c 0.0597,-6.5e-4 0.11794,3.7e-4 0.17415,0.003 0.0562,0.003 0.110531,0.006 0.162781,0.0119 0.0523,0.006 0.102855,0.0128 0.150895,0.0217 0.0239,0.004 0.04738,0.01 0.07028,0.0145 0.0229,0.006 0.04496,0.0115 0.06666,0.0176 0.0218,0.006 0.04306,0.013 0.06356,0.0202 0.0203,0.007 0.04023,0.0151 0.05943,0.0233 0.0195,0.008 0.03749,0.0166 0.05529,0.0258 0.0178,0.009 0.03478,0.0187 0.05168,0.0284 0.0162,0.0105 0.03233,0.0207 0.04703,0.0326 0.0151,0.0112 0.02991,0.0228 0.04341,0.0351 0.0137,0.0122 0.02666,0.0253 0.03876,0.0388 0.012,0.0134 0.02279,0.0275 0.03359,0.0419 0.0104,0.0147 0.02056,0.0294 0.02946,0.045 0.009,0.0159 0.0173,0.0319 0.0248,0.0486 0.007,0.0164 0.01415,0.0343 0.02015,0.0522 0.006,0.0179 0.01132,0.0359 0.01602,0.0548 0.004,0.0189 0.0082,0.0385 0.01189,0.0584 0.003,0.0198 0.0058,0.0398 0.0078,0.0605 0.002,0.0206 0.0031,0.0424 0.0041,0.0641 3.8e-4,0.0216 7.77e-4,0.0434 5.17e-4,0.0661 1.5e-4,0.0226 -0.0031,0.0454 -0.0041,0.0687 -0.002,0.0233 -0.0037,0.0477 -0.0067,0.0718 -0.006,0.0486 -0.01454,0.0985 -0.02584,0.14987 -0.0112,0.0515 -0.02366,0.10391 -0.03876,0.15813 -0.0149,0.0542 -0.03266,0.11011 -0.05116,0.16691 -0.0186,0.0568 -0.0391,0.11469 -0.0615,0.17363 -0.0222,0.059 -0.04623,0.11896 -0.07183,0.17984 -0.0256,0.0608 -0.05253,0.12248 -0.08113,0.185 -0.0284,0.0625 -0.05872,0.12577 -0.08992,0.18965 -0.031,0.0639 -0.06333,0.12879 -0.09664,0.19379 -0.0334,0.065 -0.06712,0.13054 -0.102319,0.19637 -0.0352,0.0658 -0.07175,0.13156 -0.10852,0.19792 -0.03063,0.0552 -0.06251,0.11046 -0.09405,0.16588 -0.567926,-0.52961 -1.048167,-0.98468 -1.301213,-1.29811 -0.220706,-0.27338 -0.512982,-0.74341 -0.847494,-1.30018 0.06141,-0.0135 0.122775,-0.028 0.183969,-0.0408 0.0751,-0.0155 0.149815,-0.0309 0.224275,-0.0455 0.0745,-0.0144 0.148232,-0.0287 0.221692,-0.0419 0.0735,-0.0133 0.146552,-0.0256 0.218591,-0.0377 0.0721,-0.0121 0.143481,-0.0231 0.213941,-0.032 0.0703,-0.01 0.139976,-0.0187 0.208256,-0.0264 0.0682,-0.008 0.135231,-0.0147 0.201021,-0.0207 0.0658,-0.005 0.13039,-0.0102 0.19327,-0.014 0.063,-0.003 0.124208,-0.005 0.183968,-0.005 z m -3.074231,0.55707 c 0.05227,0.0847 0.105031,0.16952 0.156063,0.25373 0.15793,0.26062 0.309325,0.5164 0.451135,0.75396 0.0709,0.11879 0.139496,0.23303 0.205156,0.34107 0.0656,0.10803 0.128482,0.20987 0.188102,0.30385 0.0596,0.094 0.116192,0.18024 0.168982,0.25684 0.0264,0.0383 0.05188,0.0742 0.07648,0.10748 0.0245,0.0333 0.0483,0.064 0.0708,0.092 0.0225,0.0279 0.04753,0.0574 0.07493,0.0884 0.0274,0.031 0.05708,0.0638 0.08888,0.0977 0.0638,0.0678 0.136191,0.14101 0.215491,0.21911 0.0793,0.0781 0.165579,0.16108 0.257348,0.24805 0.0918,0.087 0.189252,0.17798 0.290422,0.27233 0.139097,0.12974 0.291336,0.27199 0.441317,0.41238 -0.09062,0.14498 -0.183961,0.29501 -0.268718,0.43046 -0.0733,0.11728 -0.143646,0.23025 -0.209806,0.33797 -0.0663,0.10765 -0.128035,0.20999 -0.184485,0.30592 -0.0564,0.0959 -0.107352,0.18578 -0.151412,0.26769 -0.0221,0.0409 -0.04248,0.0797 -0.06098,0.11679 -0.0185,0.0371 -0.03543,0.0716 -0.05013,0.10438 -0.0144,0.0329 -0.02882,0.069 -0.04393,0.10749 -0.0156,0.0384 -0.03091,0.0797 -0.04651,0.12351 -0.0312,0.0876 -0.06375,0.18579 -0.09715,0.29197 -0.0335,0.10615 -0.06731,0.22025 -0.102836,0.34158 -0.0358,0.12128 -0.0722,0.24987 -0.110071,0.38292 -0.0757,0.26611 -0.156009,0.55183 -0.241329,0.84439 -0.02898,0.0993 -0.05934,0.19997 -0.0894,0.30024 -0.161695,0.002 -0.320283,0.005 -0.471806,0.007 -0.138319,0.002 -0.271001,0.004 -0.397391,0.007 -0.12641,0.003 -0.246401,0.006 -0.357601,0.0109 -0.11121,0.005 -0.213712,0.0107 -0.306441,0.0181 -0.0464,0.004 -0.09013,0.008 -0.131259,0.0124 -0.0412,0.005 -0.07969,0.01 -0.115238,0.015 -0.0355,0.006 -0.07364,0.0129 -0.114205,0.0212 -0.0405,0.008 -0.08345,0.0178 -0.128674,0.0284 -0.0906,0.0213 -0.190367,0.0469 -0.297657,0.0765 -0.107279,0.0296 -0.221921,0.0632 -0.343131,0.0992 -0.1212,0.036 -0.248555,0.0748 -0.380855,0.11523 -0.19338,0.0591 -0.404805,0.12355 -0.614433,0.18707 -0.01281,-0.0229 -0.02602,-0.0453 -0.03876,-0.0682 -0.0751,-0.13503 -0.148846,-0.27052 -0.221176,-0.40463 -0.144689,-0.2682 -0.283164,-0.5313 -0.412894,-0.77566 -0.0648,-0.12219 -0.127406,-0.23969 -0.187586,-0.35088 -0.0602,-0.11121 -0.117749,-0.21632 -0.172599,-0.31316 -0.0548,-0.0968 -0.107173,-0.18544 -0.156063,-0.26458 -0.0245,-0.0395 -0.048,-0.077 -0.0708,-0.11163 -0.0229,-0.0346 -0.04443,-0.066 -0.06563,-0.0951 -0.0211,-0.029 -0.045,-0.0597 -0.0708,-0.092 -0.0258,-0.0323 -0.05413,-0.0663 -0.08423,-0.10181 -0.0602,-0.0708 -0.128842,-0.14746 -0.204122,-0.22944 -0.0753,-0.082 -0.157129,-0.16951 -0.244429,-0.26097 -0.0873,-0.0915 -0.180159,-0.1875 -0.276469,-0.2868 -0.07856,-0.081 -0.166315,-0.17214 -0.249081,-0.25735 0.04073,-0.0728 0.08489,-0.15261 0.124024,-0.22272 0.0674,-0.1208 0.13254,-0.23741 0.19327,-0.3483 0.0608,-0.11089 0.117442,-0.21608 0.168982,-0.31471 0.0516,-0.0986 0.09754,-0.1909 0.137459,-0.27492 0.02,-0.042 0.03879,-0.082 0.05529,-0.11989 0.0166,-0.0379 0.03154,-0.0734 0.04444,-0.10697 0.0134,-0.0335 0.02566,-0.0698 0.03876,-0.10904 0.013,-0.0393 0.02639,-0.0815 0.03979,-0.12609 0.0268,-0.0891 0.05406,-0.18788 0.08216,-0.29559 0.028,-0.10772 0.0568,-0.22431 0.0863,-0.34726 0.0294,-0.12296 0.05985,-0.25279 0.09095,-0.38758 0.0623,-0.26958 0.127928,-0.55928 0.198438,-0.85576 0.0353,-0.14823 0.07183,-0.29819 0.109554,-0.44803 0.0082,-0.0324 0.01705,-0.0643 0.02532,-0.0966 0.260307,0.008 0.518418,0.0178 0.756543,0.0264 0.13825,0.005 0.271529,0.01 0.397909,0.0129 0.1264,0.004 0.245774,0.006 0.357084,0.007 0.11129,8.9e-4 0.214495,7e-5 0.307475,-0.003 0.0465,-0.001 0.0905,-0.003 0.131775,-0.006 0.0413,-0.003 0.07946,-0.006 0.115238,-0.009 0.0358,-0.004 0.07431,-0.009 0.115238,-0.015 0.0409,-0.007 0.08451,-0.0135 0.130225,-0.0217 0.0915,-0.0173 0.192117,-0.0374 0.300757,-0.0615 0.10863,-0.0242 0.225449,-0.0517 0.348299,-0.0816 0.12285,-0.0299 0.251863,-0.0624 0.386023,-0.0961 0.10812,-0.0272 0.229873,-0.0571 0.343648,-0.0858 z m -5.34696,0.33073 c -0.188078,0.81699 -0.353163,1.52041 -0.506946,1.91926 -0.08555,0.22189 -0.235663,0.52109 -0.418579,0.86352 -0.03444,-0.0398 -0.0693,-0.0792 -0.102836,-0.11886 -0.0483,-0.057 -0.09541,-0.11395 -0.141594,-0.17053 -0.0462,-0.0566 -0.09114,-0.113 -0.134875,-0.16898 -0.0437,-0.056 -0.08625,-0.11175 -0.127124,-0.16692 -0.0409,-0.0552 -0.08057,-0.10965 -0.118339,-0.16381 -0.0378,-0.0541 -0.07377,-0.10777 -0.108004,-0.16072 -0.0342,-0.0529 -0.06633,-0.10554 -0.09663,-0.15709 -0.0303,-0.0515 -0.05865,-0.10201 -0.08475,-0.15193 -0.026,-0.0499 -0.04991,-0.0992 -0.07131,-0.14728 -0.0213,-0.0481 -0.04003,-0.0955 -0.05633,-0.14159 -0.008,-0.023 -0.01542,-0.0457 -0.02222,-0.0682 -0.007,-0.0225 -0.01269,-0.0441 -0.01809,-0.0661 -0.006,-0.022 -0.01047,-0.0438 -0.01447,-0.0651 -0.004,-0.0213 -0.0068,-0.0423 -0.0098,-0.063 -0.003,-0.0207 -0.0042,-0.0409 -0.0052,-0.061 -10e-4,-0.02 -10e-4,-0.04 -10e-4,-0.0594 9.6e-4,-0.0193 0.0021,-0.0382 0.0041,-0.0568 0.002,-0.0187 0.0048,-0.0373 0.0088,-0.0553 0.004,-0.0179 0.0092,-0.0351 0.01447,-0.0522 0.006,-0.0172 0.01222,-0.0341 0.01912,-0.0506 0.008,-0.0164 0.01571,-0.0326 0.02481,-0.0481 0.009,-0.0156 0.01876,-0.0306 0.02946,-0.0455 l -0.0016,-5.2e-4 c 0.0105,-0.0149 0.02232,-0.0297 0.03462,-0.0439 0.0124,-0.0141 0.02579,-0.0274 0.03979,-0.0408 0.014,-0.0134 0.02874,-0.0267 0.04444,-0.0393 0.0155,-0.0127 0.03148,-0.0252 0.04858,-0.0372 0.0171,-0.012 0.03524,-0.0234 0.05374,-0.0346 0.0185,-0.0111 0.03746,-0.0224 0.05736,-0.0331 0.0199,-0.0103 0.0403,-0.021 0.06149,-0.031 0.0212,-0.0104 0.04355,-0.02 0.06615,-0.0295 0.0451,-0.0188 0.09255,-0.0358 0.142627,-0.0522 0.05,-0.0164 0.102129,-0.0323 0.156579,-0.0465 0.0545,-0.0142 0.110959,-0.0272 0.169499,-0.0393 0.0587,-0.0116 0.119104,-0.0233 0.181384,-0.0331 0.0622,-0.01 0.12621,-0.019 0.19172,-0.0274 0.0656,-0.008 0.132621,-0.0156 0.201021,-0.0222 0.0684,-0.007 0.137893,-0.0127 0.208773,-0.0176 0.0709,-0.005 0.143098,-0.009 0.216008,-0.0129 0.02146,-0.001 0.04349,-0.002 0.06511,-0.003 z m 10.753865,0.43305 a 7.3361378,7.3361378 0 0 1 0.734322,4.00234 7.3361378,7.3361378 0 0 1 -0.03979,0.25476 c -0.566204,-0.66482 -1.283258,-1.36226 -1.967322,-2.00556 0.455816,-0.73865 0.92115,-1.52404 1.27279,-2.25154 z m 12.802322,0.32143 c 0.50393,0.57456 1.03315,1.15211 1.54771,1.63711 a 7.3361378,7.3361378 0 0 1 -1.38907,0.003 7.3361378,7.3361378 0 0 1 -2.080489,-0.53537 c 0.631027,-0.32401 1.293229,-0.71723 1.921849,-1.10432 z m -19.460313,1.45882 a 1.2669988,1.2669988 0 0 0 -1.226799,0.99581 1.2669988,1.2669988 0 0 0 0.96635,1.50895 1.2669988,1.2669988 0 0 0 1.508951,-0.96635 1.2669988,1.2669988 0 0 0 -0.966349,-1.50895 1.2669988,1.2669988 0 0 0 -0.282153,-0.0295 z m -7.188192,0.64286 c 0.433175,0.48813 0.89751,0.97435 1.336869,1.42782 -0.330487,0.59474 -0.674188,1.22736 -0.974617,1.84588 a 7.3361378,7.3361378 0 0 1 -0.380855,-3.15743 7.3361378,7.3361378 0 0 1 0.0186,-0.11627 z m 11.862842,0.9679 c 0.04147,0.0412 0.08362,0.0822 0.12454,0.1235 0.054,0.0545 0.10698,0.10923 0.15968,0.16382 0.0527,0.0546 0.105053,0.10881 0.156063,0.1633 0.051,0.0545 0.100922,0.10908 0.149862,0.16329 0.0489,0.0542 0.0972,0.10803 0.14366,0.16175 0.0465,0.0537 0.0912,0.10765 0.134876,0.16071 0.0436,0.0531 0.08614,0.10541 0.126607,0.15762 0.0403,0.0522 0.07903,0.10437 0.115755,0.15554 0.0369,0.0512 0.07169,0.10146 0.104387,0.15141 0.0328,0.0499 0.0641,0.0993 0.0925,0.1478 0.0284,0.0485 0.05433,0.0962 0.07803,0.14314 0.0237,0.047 0.04486,0.0933 0.06356,0.1385 0.009,0.0226 0.01794,0.0451 0.02584,0.0672 0.008,0.0221 0.0152,0.044 0.0217,0.0656 0.007,0.0216 0.01257,0.043 0.01757,0.0641 0.005,0.021 0.0091,0.042 0.01292,0.0625 0.004,0.0205 0.0058,0.0405 0.0078,0.0605 0.002,0.0199 0.0031,0.0394 0.0041,0.0589 -1.4e-4,0.0193 -3.07e-4,0.0386 -0.0021,0.0574 -10e-4,0.0188 -0.0032,0.0372 -0.0062,0.0553 -0.003,0.0181 -0.007,0.0357 -0.01137,0.0532 -0.005,0.0174 -0.01074,0.0348 -0.01654,0.0517 -0.007,0.0167 -0.0132,0.0331 -0.0217,0.0491 -0.009,0.016 -0.01739,0.0316 -0.02739,0.047 -0.01,0.0155 -0.02076,0.0308 -0.03256,0.0455 -0.0114,0.0148 -0.02432,0.0289 -0.03772,0.0429 -0.0133,0.0141 -0.02738,0.0279 -0.04238,0.0413 -0.0149,0.0134 -0.03011,0.0265 -0.04651,0.0393 -0.0163,0.0128 -0.03378,0.0255 -0.05168,0.0377 -0.0179,0.0122 -0.03641,0.0246 -0.05581,0.0362 -0.0193,0.0116 -0.03996,0.0225 -0.06046,0.0336 -0.0208,0.0111 -0.04218,0.0221 -0.06408,0.0326 -0.0441,0.021 -0.09047,0.041 -0.139526,0.0599 -0.0491,0.0189 -0.100853,0.0368 -0.154513,0.0537 -0.0537,0.0169 -0.109561,0.0326 -0.167431,0.0476 -0.0579,0.015 -0.117668,0.0292 -0.179318,0.0424 -0.0617,0.0132 -0.125129,0.0257 -0.190169,0.0372 -0.065,0.0115 -0.131491,0.022 -0.199471,0.032 -0.0679,0.01 -0.137199,0.0193 -0.207739,0.0279 -0.0705,0.009 -0.142304,0.0165 -0.214974,0.0238 -0.0727,0.007 -0.146259,0.0145 -0.220659,0.0207 -0.0743,0.006 -0.149589,0.0114 -0.225309,0.0165 -0.0756,0.005 -0.15178,0.0103 -0.22841,0.0139 -0.113525,0.006 -0.22822,0.0105 -0.342614,0.015 0.21361,-0.75143 0.40103,-1.39131 0.56534,-1.76113 0.152499,-0.34323 0.466511,-0.86006 0.841809,-1.46141 z m -9.311576,1.72651 c 0.205408,0.22406 0.374359,0.42034 0.490409,0.57981 0.280992,0.38612 0.672959,1.13519 1.124996,1.98799 -0.04368,0.01 -0.08753,0.0197 -0.130742,0.0289 -0.0714,0.0153 -0.142093,0.0295 -0.211873,0.0429 -0.0698,0.0134 -0.138916,0.0259 -0.206706,0.0372 -0.0678,0.0113 -0.134031,0.0216 -0.199471,0.0305 -0.0654,0.009 -0.130013,0.0163 -0.192753,0.0227 -0.0627,0.006 -0.123761,0.0115 -0.183451,0.015 -0.0597,0.003 -0.11787,0.005 -0.17415,0.006 -0.0563,3.9e-4 -0.110777,-9e-4 -0.163297,-0.004 -0.0526,-0.003 -0.103002,-0.008 -0.151412,-0.0139 -0.0242,-0.003 -0.0477,-0.007 -0.0708,-0.0114 -0.0231,-0.004 -0.0458,-0.009 -0.0677,-0.014 -0.022,-0.005 -0.04328,-0.0109 -0.06408,-0.017 -0.0208,-0.006 -0.04086,-0.0131 -0.06046,-0.0202 -0.0196,-0.007 -0.03906,-0.0144 -0.05736,-0.0227 -0.0183,-0.008 -0.03571,-0.0171 -0.05271,-0.0264 -0.0169,-0.009 -0.03288,-0.0191 -0.04858,-0.0295 -0.0156,-0.0104 -0.03127,-0.0216 -0.04547,-0.0331 -0.0142,-0.0116 -0.02751,-0.0239 -0.04031,-0.0367 -0.0128,-0.0127 -0.02487,-0.0263 -0.03617,-0.0403 -0.0113,-0.014 -0.02182,-0.0287 -0.03152,-0.0439 -0.01,-0.0152 -0.01857,-0.0307 -0.02687,-0.047 -0.008,-0.0164 -0.01594,-0.0331 -0.02274,-0.0506 -0.007,-0.0175 -0.01352,-0.0357 -0.01912,-0.0543 -0.005,-0.0185 -0.01027,-0.0378 -0.01447,-0.0574 -0.004,-0.0196 -0.0079,-0.0392 -0.01033,-0.0599 -0.003,-0.0207 -0.0052,-0.0419 -0.0072,-0.0636 -0.002,-0.0216 -0.0031,-0.0435 -0.0031,-0.0661 -7.8e-4,-0.0226 -3.07e-4,-0.0458 0.001,-0.0692 3.5e-4,-0.0235 0.0021,-0.0475 0.0041,-0.0718 0.004,-0.0487 0.0099,-0.0989 0.01809,-0.15089 0.008,-0.052 0.01849,-0.10576 0.03049,-0.16071 0.0125,-0.0549 0.02689,-0.11138 0.04289,-0.16899 0.0159,-0.0576 0.03321,-0.11621 0.05271,-0.17621 0.0194,-0.06 0.04055,-0.12136 0.06305,-0.18345 0.0225,-0.0621 0.04643,-0.12527 0.07183,-0.18914 0.0253,-0.0639 0.0524,-0.1284 0.0801,-0.19379 0.0279,-0.0654 0.0563,-0.13133 0.0863,-0.19792 0.03,-0.0666 0.06122,-0.13353 0.09302,-0.20102 0.0319,-0.0675 0.06469,-0.13549 0.09819,-0.2036 0.01172,-0.0238 0.02376,-0.0479 0.03566,-0.0718 z m 10.737329,2.34352 a 7.3361378,7.3361378 0 0 1 -4.026628,2.86288 c 0.339668,-0.81038 0.638611,-1.77886 0.903304,-2.6939 1.024942,-0.0157 2.156972,-0.0447 3.123324,-0.16898 z m -4.148068,0.18552 c -6.73e-4,0.002 -0.0014,0.004 -0.0021,0.006 -0.0252,0.0703 -0.05058,0.13947 -0.07648,0.20773 -0.0259,0.0683 -0.05246,0.13565 -0.07906,0.20154 -0.0266,0.0659 -0.05383,0.13023 -0.08113,0.19327 -0.0273,0.063 -0.05468,0.12469 -0.08268,0.18449 -0.028,0.0598 -0.05657,0.11751 -0.08527,0.17363 -0.0287,0.0561 -0.05783,0.11026 -0.08733,0.16226 -0.0294,0.052 -0.0593,0.10185 -0.0894,0.14935 -0.0302,0.0475 -0.06047,0.0929 -0.09147,0.13539 -0.031,0.0425 -0.06277,0.0823 -0.09457,0.11937 -0.0158,0.0186 -0.03196,0.0366 -0.04806,0.0537 -0.0161,0.0171 -0.03176,0.0334 -0.04806,0.0491 -0.0162,0.0157 -0.03311,0.0302 -0.04961,0.0444 -0.0165,0.0141 -0.03249,0.0278 -0.04909,0.0403 -0.0166,0.0125 -0.03374,0.0243 -0.05064,0.0351 -0.0169,0.011 -0.03354,0.0209 -0.05064,0.03 -0.0171,0.009 -0.03448,0.0173 -0.05168,0.0248 -0.0173,0.007 -0.03479,0.0145 -0.05219,0.0202 -0.0174,0.006 -0.03511,0.01 -0.05271,0.014 -0.0177,0.004 -0.03523,0.007 -0.05323,0.008 -0.0179,0.002 -0.03574,0.003 -0.05374,0.003 -0.0181,3e-5 -0.03596,-0.001 -0.05426,-0.003 -0.0182,-0.002 -0.03689,-0.005 -0.05529,-0.008 -0.0184,-0.004 -0.03731,-0.008 -0.05581,-0.0134 -0.0186,-0.005 -0.03701,-0.0114 -0.05581,-0.0186 -0.0187,-0.007 -0.03743,-0.0156 -0.05633,-0.0243 -0.0189,-0.009 -0.03836,-0.0181 -0.05736,-0.0284 -0.0191,-0.0103 -0.03774,-0.0213 -0.05684,-0.0331 -0.0192,-0.0119 -0.03858,-0.0254 -0.05788,-0.0388 -0.0193,-0.0133 -0.03848,-0.0269 -0.05788,-0.0418 -0.0388,-0.0297 -0.07814,-0.0622 -0.117305,-0.0972 -0.0392,-0.035 -0.07842,-0.0725 -0.117823,-0.11265 -0.0395,-0.04 -0.07961,-0.083 -0.119372,-0.12764 -0.0397,-0.0447 -0.07948,-0.0917 -0.119373,-0.14056 -0.0398,-0.0488 -0.07942,-0.0993 -0.119372,-0.15193 -0.0399,-0.0526 -0.07993,-0.10737 -0.11989,-0.1633 -0.0399,-0.0559 -0.08008,-0.11323 -0.119889,-0.17208 -0.0398,-0.0588 -0.07923,-0.11901 -0.118856,-0.18035 -0.0162,-0.0251 -0.03244,-0.051 -0.04858,-0.0765 0.544719,-0.16292 1.008164,-0.29185 1.321883,-0.34107 0.340843,-0.0535 0.881075,-0.0713 1.515153,-0.0827 z m -4.496366,0.92708 c 0.350927,0.64433 0.723903,1.29793 1.103809,1.87068 a 7.3361378,7.3361378 0 0 1 -2.953825,-1.37097 c 0.605691,-0.13989 1.239554,-0.31801 1.850016,-0.49971 z" />
      </g>
    </g>
  </g>
</svg>
